<?xml version="1.0" standalone="no"?>
<!DOCTYPE svg PUBLIC "-//W3C//DTD SVG 1.1//EN" "http://www.w3.org/Graphics/SVG/1.1/DTD/svg11.dtd" >
<svg xmlns="http://www.w3.org/2000/svg">
<metadata></metadata>
<defs>
<font id="freehand575_pflnormal" horiz-adv-x="1013" >
<font-face units-per-em="2048" ascent="1638" descent="-410" />
<missing-glyph horiz-adv-x="507" />
<glyph horiz-adv-x="2048" />
<glyph horiz-adv-x="2048" />
<glyph unicode="&#xd;" horiz-adv-x="507" />
<glyph unicode=" "  horiz-adv-x="507" />
<glyph unicode="&#x09;" horiz-adv-x="507" />
<glyph unicode="&#xa0;" horiz-adv-x="507" />
<glyph unicode="!" horiz-adv-x="522" d="M-2 45q0 47 47 96t94 49q59 0 60 -81q0 -49 -31 -88t-78 -39q-92 0 -92 63zM119 297q0 160 127 582q139 461 235 460q25 0 52.5 -19.5t27.5 -43.5q0 -10 -10 -25q-12 -20 -14 -24l-117 -344l-178 -541q-6 -27 -13 -55q-10 -21 -55 -21q-27 0 -43 6q-12 16 -12 25z" />
<glyph unicode="&#x22;" horiz-adv-x="589" d="M94 881v553h117v-553h-117zM377 881v553h119v-553h-119z" />
<glyph unicode="#" horiz-adv-x="1574" d="M104 467l43 123h320l96 272h-342l43 123h344l168 471h146l-166 -471h260l168 471h143l-164 -471h307l-43 -123h-311l-94 -272h330l-43 -123h-332l-166 -469h-145l168 469h-265l-168 -469h-143l166 469h-320zM614 590h263l96 272h-264z" />
<glyph unicode="$" d="M31 266q0 27 19.5 48.5t43.5 21.5q16 0 47 -66q82 -178 308 -178q104 0 126 82q-14 66 -98 143q-139 129 -145 138q-76 88 -76 184q0 145 142.5 357t279.5 245q94 385 176 385q41 0 41 -47q0 -96 -117 -354q33 -31 92 -117q141 -84 142 -152q0 -20 -24.5 -34.5 t-45.5 -14.5q-41 0 -87 90t-93 90q-117 0 -236 -184q-109 -170 -108 -295q0 -104 80 -200q25 -27 151 -138q80 -72 80 -118q0 -154 -303 -175q-35 -102 -72 -204q-57 -160 -88 -160q-63 0 -63 70q0 74 100 317q-86 27 -172 102q-100 86 -100 164z" />
<glyph unicode="%" horiz-adv-x="976" d="M-39 76q0 14 51 76q33 35 64 71l6 8l659 734q254 283 338 282q35 0 35 -45q0 -18 -70 -84q-45 -41 -90 -84l-462 -516q-123 -143 -246 -285q-209 -239 -223 -239q-27 0 -44.5 26.5t-17.5 55.5zM184 862q0 102 70 223q78 135 172 136l27 -4l28 -17q115 0 115 -131 q0 -125 -76 -231q-82 -117 -203 -117q-133 0 -133 141zM313 850q0 -59 41 -59q53 0 99 106q41 92 41 156q0 61 -37 61q-45 0 -97 -108q-47 -101 -47 -156zM371 76q0 74 49 192q53 131 108 162q14 6 70 21.5t70 15.5q63 0 98 -66q29 -53 29 -122q0 -115 -60 -205 q-70 -104 -178 -105q-92 0 -125 13q-61 20 -61 94zM508 59l10 -18l23 -8q55 0 104 90q43 82 43 143q0 86 -43 86q-45 0 -94 -123q-43 -111 -43 -170z" />
<glyph unicode="&#x26;" horiz-adv-x="1062" d="M-43 199q0 98 168 243q111 94 250 179q-18 82 -19 194q0 111 56 186q61 84 168 84q63 0 108 -43t45 -104q0 -123 -217 -336q66 -264 141 -381q94 80 95 139l-2 15q-51 -6 -54 -6q-27 0 -57.5 29.5t-30.5 56.5q0 41 142 61q96 14 190 14q80 0 80 -55q0 -37 -90 -59 q-66 -12 -129 -25q35 -37 35 -57q0 -88 -115 -199q47 -37 98 -96q-31 -33 -71 -33q-33 1 -117 60q-168 -84 -324 -84q-125 0 -223 45q-127 59 -127 172zM133 182q0 -100 152 -100q135 0 270 70q-86 137 -160 358q-262 -262 -262 -328zM498 748q0 -4 2 -15v-16 q129 170 129 264q0 10 -2 20l-15 11q-49 -18 -84 -115q-31 -84 -30 -149z" />
<glyph unicode="'" horiz-adv-x="305" d="M94 881v553h117v-553h-117z" />
<glyph unicode="(" horiz-adv-x="606" d="M82 184q0 174 80 422q88 276 219 455q160 213 338 213q31 0 65 -10q43 -16 43 -41q0 -20 -57 -33q-84 -18 -84 -19q-84 -37 -154 -122q-117 -141 -212 -427t-95 -477q0 -246 117 -432l-12 -16l-21 -8q-100 0 -170 205q-57 162 -57 290z" />
<glyph unicode=")" horiz-adv-x="606" d="M-254 -260q0 20 59 33q41 10 82 18q80 31 156 123q117 145 213 430q92 279 92 473q0 254 -115 432l13 19l18 6q102 0 174 -203q55 -162 56 -293q0 -172 -80 -422q-90 -276 -224 -454q-160 -213 -335 -213q-31 0 -66 12q-43 14 -43 39z" />
<glyph unicode="*" horiz-adv-x="507" d="M211 989q0 25 145 123q-86 49 -86 72q0 25 31 30q55 -10 98 -45q43 131 80 131l21 -8q10 -16 8 -22q-10 -29 -33 -86q84 47 103 47l18 -2l6 -6q-29 -29 -135 -103q31 -20 90 -61q-8 -33 -35 -43q-31 14 -92 55q-10 -39 -22 -76q-23 -63 -48 -65l-14 6l-6 10q2 41 25 107 q-43 -31 -136 -80l-14 6z" />
<glyph unicode="+" horiz-adv-x="1705" d="M254 553v117h541v551h118v-551h539v-117h-539v-553h-118v553h-541z" />
<glyph unicode="," horiz-adv-x="507" d="M-23 -150q0 35 75 163t104 128q16 0 32.5 -15t16.5 -32q-25 -57 -94 -162q-78 -118 -105 -118q-29 0 -29 36z" />
<glyph unicode="-" horiz-adv-x="702" d="M84 332q78 31 324 30q137 0 137 -86q0 -12 -8 -26q-18 -14 -181 -25q-133 -10 -202 -10q-53 0 -66 33q-4 14 -4 84z" />
<glyph unicode="." horiz-adv-x="507" d="M43 43q0 53 41 91t94 38q68 0 68 -61q0 -39 -38 -90.5t-75 -51.5q-90 0 -90 74z" />
<glyph unicode="/" horiz-adv-x="606" d="M-45 -123q0 51 197 483q154 334 247 523q211 420 277 420q47 0 47 -54q0 -10 -4 -20q-31 -27 -227 -441q-147 -315 -228 -493q-212 -485 -241 -485t-48.5 20t-19.5 47z" />
<glyph unicode="0" d="M14 324q0 141 95 364q98 236 233 393q158 184 303 185q55 0 133 -29q127 -47 175 -123t48 -217q0 -293 -182 -596q-205 -344 -477 -344q-145 0 -240 113q-88 104 -88 254zM158 281q0 -215 174 -215q211 0 387 342q152 297 151 532q0 92 -20 133q-31 61 -113 62 q-141 0 -284 -164q-125 -141 -211 -355q-84 -201 -84 -335z" />
<glyph unicode="1" horiz-adv-x="540" d="M-129 76q0 51 195 71q45 215 137 494q20 61 172 485q-23 -4 -76 -4q-88 0 -88 45q0 102 295 103q90 0 90 -58q0 -4 -107 -270q-113 -285 -122 -315q-82 -225 -152 -467q119 0 119 -62q0 -47 -172 -78q-104 -14 -209 -28q-31 -4 -56.5 24.5t-25.5 59.5z" />
<glyph unicode="2" d="M10 94q0 29 62 49q43 10 86 21q143 39 414.5 390t271.5 503q0 61 -64 61q-100 0 -252 -133q-100 -90 -235 -250q-115 -133 -119 -133q-25 0 -48.5 24.5t-23.5 49.5q0 92 238 348q248 264 373 264q100 0 129 -82q162 -61 162 -188q0 -182 -256 -473q-197 -223 -410 -381 q119 10 244 10q172 0 172 -82q0 -63 -95 -63q-18 0 -51 3t-43 3q-115 0 -493 -51q-31 -4 -47 41q-14 35 -15 69z" />
<glyph unicode="3" d="M-12 145q0 31 22.5 69t50.5 38q25 0 43 -45q31 -68 39 -80q31 -45 84 -45q88 0 260 113q180 117 181 198q0 125 -228 125q-31 0 -79 -2t-60 -2q-10 0 -19.5 12.5t-9.5 24.5q0 92 138 111q123 16 297 131q193 129 192 237q0 72 -104 72q-102 0 -260 -74 q-141 -66 -234 -143q-31 -29 -94 -74q-18 0 -36.5 16.5t-18.5 34.5q0 86 260 248q252 158 360 158q84 0 111 -76q152 -68 151 -195q0 -121 -162 -239q-108 -82 -266 -148q205 -61 205 -268q0 -135 -217 -264q-199 -117 -346 -117q-92 0 -170 45q-90 53 -90 139z" />
<glyph unicode="4" d="M2 328q0 82 396.5 517t467.5 435q41 0 86 -14q59 -18 60 -49q-211 -526 -301 -824l118 -8q70 -14 70 -80q0 -10 -4 -31q-14 0 -42 2.5t-38 2.5q-29 0 -147 -7q-29 -88 -58 -178q-47 -135 -78 -135q-68 0 -67 72q0 85 51 237q-111 0 -438 -37q-35 -4 -58 31q-18 29 -18 66 zM156 369q213 20 403 24l264 742q-367 -403 -667 -766z" />
<glyph unicode="5" d="M8 170q0 41 21 84q25 53 59 53q27 0 27 -43q0 -66 52 -124t118 -58q125 0 303 182t178 305q0 80 -111 80q-102 0 -221 -51q-104 -49 -207 -98q-23 0 -60.5 39t-37.5 61q0 20 100 274l58 146q25 68 49 137q20 51 56 72.5t136 36.5q131 20 344 20q70 0 91 -8q43 -14 43 -70 q0 -53 -160 -67q-106 -6 -213 -11q-20 -2 -150 -22q-59 -112 -178 -438q158 96 320 96q109 0 191.5 -74t82.5 -180q0 -174 -229 -367q-221 -186 -400 -186q-104 0 -178 51q-84 59 -84 160z" />
<glyph unicode="6" d="M63 270q0 229 170 521q145 252 345 438q100 94 147 94q25 0 56.5 -16.5t31.5 -38.5q0 -14 -37 -37q-176 -107 -414 -531q131 100 250 101q94 0 185.5 -88t91.5 -183q0 -201 -180.5 -373.5t-382.5 -172.5q-125 0 -194 80.5t-69 205.5zM219 219q0 -141 113 -141 q117 0 268.5 173t151.5 294q0 131 -158 131q-144 0 -287 -119q-88 -168 -88 -338z" />
<glyph unicode="7" horiz-adv-x="843" d="M16 14q0 105 766 1127q-121 0 -290 -27q-145 -25 -289 -49q-37 -6 -37 35q0 70 43 96q70 41 311 70q193 20 334 20q117 0 135 -106l-8 -27q-59 -59 -137 -166q-61 -90 -125 -178q-326 -444 -592 -852q-20 -8 -41 -8q-29 0 -49.5 19.5t-20.5 45.5z" />
<glyph unicode="8" d="M2 236q0 104 154 237q106 94 245 170q-66 41 -92 76q-35 43 -35 110q0 166 164 308q156 137 326 137q164 0 219 -144q31 -78 31 -108q0 -90 -129 -205q-61 -55 -211 -153q213 -66 213 -250q0 -152 -230 -308q-213 -143 -374 -143q-109 0 -195 83t-86 190zM141 184 q0 -92 127 -92q117 0 291 117q184 123 184 229q1 82 -200 148q-131 -80 -240 -174q-162 -141 -162 -228zM430 854q1 -68 107 -129q113 66 204 143q139 115 140 187q0 41 -35 68.5t-78 27.5q-90 0 -214 -104.5t-124 -192.5z" />
<glyph unicode="9" d="M131 633q0 162 160 399q170 254 321 254q127 0 246 -100q123 -106 123 -232q0 -63 -16 -125q-45 -174 -277 -501q-252 -362 -387 -363q-68 0 -68 27q248 280 357 452q-115 -49 -184 -49q-106 0 -190.5 66.5t-84.5 171.5zM274 627q0 -96 150 -97q104 1 258 60 q154 250 154 399q0 59 -25 111q-29 63 -82 63q-133 0 -294 -199.5t-161 -336.5z" />
<glyph unicode=":" horiz-adv-x="507" d="M72 43q0 53 42 91t95 38q66 0 65 -61q0 -39 -36.5 -90.5t-73.5 -51.5q-92 0 -92 74zM176 551q0 57 46 93t104 36q23 0 39 -19.5t16 -42.5q0 -45 -51.5 -89t-96.5 -44q-57 0 -57 66z" />
<glyph unicode=";" horiz-adv-x="507" d="M12 -82q0 37 70 152q74 125 117 125q55 0 55 -35q0 -4 -88 -133t-92 -131q-23 -6 -23 -7q-39 0 -39 29zM188 578q0 43 37 81.5t80 38.5q72 0 72 -75q0 -43 -41 -72t-86 -29q-61 0 -62 56z" />
<glyph unicode="&#x3c;" horiz-adv-x="1705" d="M264 559v103l1178 483v-127l-1000 -408l1000 -405v-129z" />
<glyph unicode="=" horiz-adv-x="1705" d="M254 360v117h1198v-117h-1198zM254 743v117h1198v-117h-1198z" />
<glyph unicode="&#x3e;" horiz-adv-x="1705" d="M264 76v129l1000 405l-1000 408v127l1178 -483v-103z" />
<glyph unicode="?" horiz-adv-x="972" d="M168 41q0 51 52 103.5t104 52.5q29 0 54 -25t25 -53q0 -51 -52 -98.5t-105 -47.5q-78 0 -78 68zM229 981q0 72 168 213t244 141q82 0 125 -96q172 -76 172 -207q0 -100 -236 -405q-143 -172 -286 -346q-18 -10 -66 -11q-45 0 -45 35q0 29 121 193q170 231 223 313 q121 186 121 268q0 90 -84 90q-96 0 -219 -98q-94 -76 -170 -178q-68 43 -68 88z" />
<glyph unicode="@" horiz-adv-x="2048" d="M113 522q0 416 297 680q287 256 706 256q330 0 563 -170q258 -190 258 -510q0 -254 -147 -448q-162 -209 -410 -209q-203 0 -198 155q2 33 2 23q-102 -178 -297 -178q-313 0 -314 332q0 217 123 376q135 172 346 172q184 1 250 -157l58 121h110l-141 -568 q-12 -49 -12 -80q0 -90 110 -90q172 0 291 191q102 166 102 348q0 289 -221 448q-195 141 -493 142q-367 0 -610.5 -238.5t-243.5 -603.5q0 -328 231 -520q217 -182 551 -182q352 0 631 188l45 -66q-301 -221 -660 -221q-397 0 -651 203q-276 219 -276 606zM713 446 q0 -229 196 -229q125 0 203 84q59 66 98 197q25 108 52 217q-35 190 -207 190q-164 0 -260 -153q-82 -131 -82 -306z" />
<glyph unicode="A" horiz-adv-x="919" d="M-76 2q0 98 205 492q137 270 268 489q174 293 285 293q35 0 90 -23q68 -25 68 -53q0 -12 -19 -47q-23 -41 -24 -49q-20 -57 -47 -326q-23 -225 -23 -688q0 -78 -78 -78q-47 0 -61 135q-4 27 -8 168q-150 -12 -428 -59q-35 -84 -70 -170q-63 -125 -123 -125q-35 0 -35 41z M231 420q181 10 349 18q0 311 59 695q-156 -229 -408 -713z" />
<glyph unicode="B" horiz-adv-x="948" d="M8 92q0 104 121 490q82 263 168 499q-2 4 -2 33q0 133 248 133q276 0 393 -213q31 -59 31 -100q0 -166 -381 -313q96 0 174 -69t78 -163q0 -164 -254 -301q-223 -119 -406 -119q-66 0 -112 29q-57 33 -58 94zM137 98q24 -24 74 -24h4q109 0 297 121q197 129 197 227 q0 55 -72 84q-51 18 -119 18q-139 0 -256 -24q-45 -113 -125 -402zM311 641q184 43 326 119q203 113 203 250q0 82 -138 82q-164 0 -247 -27q-81 -209 -144 -424z" />
<glyph unicode="C" horiz-adv-x="901" d="M12 287q0 117 104.5 365.5t233.5 428.5q147 211 254 211q37 0 74 -19.5t72 -37.5q90 -41 112 -59q58 -43 58 -109q0 -35 -21.5 -65.5t-56.5 -30.5q-37 0 -47.5 41t-20.5 80q-23 43 -80 43q-127 0 -260 -170q-115 -143 -196 -359q-78 -201 -78 -323q0 -94 46 -153.5 t138 -59.5q86 0 182 47q55 29 144 90q70 47 86 47q6 0 14 -8q6 -20 6 -21q0 -78 -164 -172q-154 -86 -241 -86q-158 0 -254 80q-104 86 -105 240z" />
<glyph unicode="D" horiz-adv-x="1052" d="M27 61q0 141 118 533q85 278 181 536q-16 37 -17 70q0 47 53 60q20 4 93 4q248 0 399 -107q172 -123 172 -360q0 -168 -152 -371q-143 -190 -348 -322q-213 -137 -379 -137q-121 0 -120 94zM174 80q248 70 477 297q248 248 248 485q0 115 -90 180q-80 57 -201 58l-129 -8 q-236 -653 -305 -1012z" />
<glyph unicode="E" horiz-adv-x="929" d="M16 76q0 37 66 274l219 793q25 88 72 104q18 6 137 6q61 0 270 -22q203 -20 213 -25l8 -18q0 -47 -180 -66q-117 -6 -231 -14l-135 -18q-80 -238 -162 -541q231 26 401 26h13q90 0 90 -45q0 -55 -47 -59q-164 -16 -494 -57q-49 -166 -84 -287q395 53 516 53q86 0 86 -39 q0 -45 -96 -55q-78 -8 -289 -66q-190 -51 -270 -51q-41 0 -72 32t-31 75z" />
<glyph unicode="F" horiz-adv-x="806" d="M4 0q0 49 139 561q145 528 191 606q20 37 207 45h225q109 0 133 -4q88 -12 88 -69q0 -35 -45 -37q26 1 26 2q0 2 -98 2q-80 0 -208 -21q-104 -16 -207 -32q-100 -301 -150 -523q127 6 180 7q160 0 160 -60q0 -53 -182 -71q-99 -5 -197 -9q-55 -213 -112 -430 q-17 -24 -72 -24h-4q-74 0 -74 57z" />
<glyph unicode="G" horiz-adv-x="948" d="M-6 225q0 231 139 504q133 260 318 420q133 117 182 117q59 0 181 -113t122 -172q0 -37 -31 -37q-12 0 -74.5 81t-109.5 81q-180 0 -389 -342q-195 -319 -195 -535q0 -153 117 -153h2q147 0 287 98q124 90 202 229q-53 4 -63 5q-43 0 -130 -17.5t-132 -17.5q-96 0 -96 71 q0 37 174 64q133 20 215 20t114 -20q43 -27 43 -102q0 -82 -141 -224q-127 -127 -220 -170t-192 -43q-109 0 -211 74q-113 78 -112 182z" />
<glyph unicode="H" horiz-adv-x="1021" d="M0 -6q0 127 291 1036q45 139 112 139q35 0 71 -17t36 -48q0 -14 -25 -41q-88 -98 -213 -567q22 -3 44 -3l22 1q215 8 356 20q113 360 148 461q141 395 205 395q27 0 63.5 -17.5t36.5 -39.5q0 -16 -25 -41q-57 -59 -92 -152q-111 -297 -176 -573l-86 -363l-18 -78 q-18 -45 -58 -45q-35 0 -59.5 25t-24.5 59q0 29 58 254h-18q-277 0 -419 -30q-31 -123 -59 -246q-51 -188 -90 -189q-80 0 -80 60z" />
<glyph unicode="I" horiz-adv-x="468" d="M6 53q0 88 270 930q94 293 179 293q20 0 50 -24.5t30 -45.5q-375 -973 -375 -1188q0 -34 -48 -34h-3q-102 0 -103 69z" />
<glyph unicode="J" horiz-adv-x="772" d="M-117 178q0 27 27 53.5t53 26.5q23 0 33 -27.5t16 -52.5q12 -37 78 -65q57 -23 105 -23q96 0 194 279q51 139 150 532q78 305 110.5 336t77.5 31q27 0 54.5 -13.5t27.5 -37.5q-41 -102 -182 -588l-90 -305q-63 -172 -171 -264.5t-206 -92.5q-74 0 -131 41q-33 25 -95 98 q-16 16 -30 33q-21 23 -21 39z" />
<glyph unicode="K" horiz-adv-x="862" d="M-4 10q0 84 301 1082l-2 18q0 53 27.5 93t78.5 40q76 0 84 -57q-19 -78 -166 -529q113 119 371 349q305 272 357 272q34 0 34 -37q0 -41 -39 -51q-143 -121 -335 -307q-162 -158 -324 -318q111 -106 217 -243q145 -186 145 -271q0 -31 -33.5 -62.5t-64.5 -31.5l-18 6 l-8 14l12 31q-2 31 -371 471l-129 -479q-12 -43 -84 -43q-53 0 -53 53z" />
<glyph unicode="L" horiz-adv-x="749" d="M10 70q0 94 131 528q111 365 176 541q43 114 102 114h1q131 0 131 -51l-158 -373q-180 -462 -231 -706q238 49 409 49q102 0 103 -57q0 -27 -127 -45q-43 -6 -469 -93q-8 -2 -15 -2q-53 0 -53 95z" />
<glyph unicode="M" horiz-adv-x="1189" d="M-72 33q0 90 412 1018q76 172 158 172q123 0 123 -43q0 -6 -52 -189q-53 -193 -59 -227q-45 -233 -45 -457q133 264 283 520q248 426 325 426q168 0 180 -59l-18 -31q-61 -100 -178 -458q-92 -279 -135 -504q-10 -57 -23 -115q-20 -88 -53 -88q-61 0 -62 80 q0 307 303 1071q-215 -254 -522 -858q-61 -119 -108 -119q-106 0 -107 80q0 319 135 868q-174 -362 -317 -764q-33 -92 -64 -182q-39 -106 -75 -178q-16 -29 -23 -29q-27 0 -52.5 20.5t-25.5 45.5z" />
<glyph unicode="N" horiz-adv-x="976" d="M-8 4q0 100 147 551q141 432 211 569q47 94 191 95q51 0 59 -23q0 -12 -27 -72q-28 -66 -28 -275v-15q0 -322 63 -603q57 254 164 580q154 471 236 471q35 0 43 -29l-29 -65q-129 -295 -322 -1032q-31 -117 -102 -117q-188 0 -188 799q0 100 4 180q-139 -403 -166 -486 q-90 -279 -133 -493q-18 -94 -35 -94q-27 0 -57.5 17.5t-30.5 41.5z" />
<glyph unicode="O" horiz-adv-x="1101" d="M35 350q0 217 141 461q129 225 316 373q127 100 202 100h2q60 0 131 -65q240 -29 240 -336q0 -293 -168 -586q-193 -340 -463 -340q-180 0 -290.5 107.5t-110.5 285.5zM176 317q0 -249 215 -249h2q238 0 406 317q141 268 141 530q0 227 -164 228q-201 0 -407 -316 q-193 -293 -193 -510z" />
<glyph unicode="P" horiz-adv-x="862" d="M12 23q0 133 224 884q86 289 86 297q0 78 133 78q182 0 311 -65q168 -84 168 -248q0 -207 -240 -359q-186 -118 -426 -159q-20 -76 -59 -228q-12 -74 -27 -147q-27 -102 -80 -103q-27 0 -55 13q-35 14 -35 37zM301 571q172 27 326 136q180 129 180 282q0 68 -80 107 q-61 34 -133 34h-4q-74 0 -121 -16q-107 -316 -168 -543z" />
<glyph unicode="Q" horiz-adv-x="1071" d="M25 322q0 199 122 440q104 207 263 379q140 155 228 155h1q70 0 133 -49q262 -25 262 -385q0 -217 -92 -422q-96 -213 -264 -338q41 -43 80 -86q61 -70 61 -88q0 -29 -22.5 -62.5t-48.5 -33.5q-57 78 -80 107q-46 57 -93 94q-119 -57 -233 -58q-139 0 -228 102.5 t-89 244.5zM162 281q0 -205 157 -205q83 0 144 37q-131 102 -131 118q0 8 10 21l27 8q78 0 206 -88q156 123 246 340q82 201 82 414q0 221 -135 221q-143 0 -295 -164q-131 -143 -223 -358q-88 -205 -88 -344z" />
<glyph unicode="R" horiz-adv-x="929" d="M20 84q0 82 144 580q139 492 186 581q33 63 185 64q152 0 288 -97q152 -104 152 -249q0 -180 -225 -310q-158 -92 -385 -141q133 -145 395 -356q0 -27 -31 -50.5t-57 -23.5q-100 0 -428 332l-97 -375q-14 -53 -45 -53q-27 0 -54.5 34.5t-27.5 63.5zM305 602 q164 0 332 103q190 115 190 268q0 92 -104 149q-88 49 -188 49q8 0 -50 -4q-63 -186 -180 -565z" />
<glyph unicode="S" horiz-adv-x="819" d="M-68 262q0 25 19.5 47.5t44.5 22.5q16 0 45 -64q82 -176 301 -176q100 0 125 80q-18 76 -98 150q-125 117 -136 127q-67 83 -67 193q0 107 48 217t157 245q133 164 213 164q108 0 196 -133q143 -88 144 -156q0 -20 -25 -36.5t-45 -16.5q-45 0 -86 85t-80 85 q-131 0 -250 -185q-106 -166 -106 -307q0 -100 78 -198q27 -35 143 -148q78 -76 78 -117q0 -88 -101 -137q-80 -39 -176 -39q-129 0 -266 82q-156 94 -156 215z" />
<glyph unicode="T" horiz-adv-x="868" d="M176 1137q0 31 180.5 58.5t452.5 27.5q235 0 235 -73q0 -24 -8 -40q-207 -6 -366 -25l-203 -608l-131 -428q-16 -55 -25 -69q-20 -35 -57 -35q-72 0 -72 65q1 98 310 1063q-121 -8 -252 -20h-8q-55 0 -56 84z" />
<glyph unicode="U" horiz-adv-x="1019" d="M74 229q0 162 135 564q145 440 252 440q33 0 62.5 -18.5t29.5 -49.5q0 -35 -33 -49q-299 -653 -299 -958q0 -106 58 -107q45 0 129 78q72 68 143 170q78 111 106 197l160 481q29 80 86 237q25 66 86 66q129 0 129 -72q0 -43 -35 -55q-123 -260 -211 -514 q-122 -347 -122 -530q0 -13 10 -62q-14 -41 -53 -41q-80 0 -80 166q0 41 4 76q-172 -283 -324 -283q-111 0 -174 78q-59 72 -59 186z" />
<glyph unicode="V" horiz-adv-x="843" d="M131 170q0 31 2 76t2 53q0 418 94 844q16 71 63 71h1q27 0 71 -28.5t44 -52.5q0 -10 -21 -91q-96 -375 -96 -704q0 -106 6 -215q143 303 352 663q299 518 398 519q55 0 55 -21q0 -25 -115 -182q-190 -262 -625 -1096q-55 -41 -143 -41t-88 205z" />
<glyph unicode="W" horiz-adv-x="1214" d="M84 109q0 131 59 522q61 403 103 506q31 75 98 75h2q20 0 35.5 -14t11.5 -35q-84 -401 -100 -487q-55 -279 -86 -492q373 862 510 863q23 0 52.5 -21.5t25.5 -42.5q-61 -391 -62 -594q0 -150 8 -252q92 250 234 588q201 479 260 524q27 20 63 21q49 0 60 -31 q-18 -45 -58 -125q-207 -418 -448 -1040q-45 -115 -125 -115q-88 0 -109 197q-6 49 -6 258q0 172 31 432q-182 -324 -375 -768q-10 -27 -39 -66q-27 -18 -53 -18q-92 0 -92 115z" />
<glyph unicode="X" horiz-adv-x="843" d="M-68 -14q1 55 394 561q-119 410 -119 526q0 27 18.5 49.5t44.5 22.5q8 0 19 -4q39 8 28 8q47 0 59.5 -8t18.5 -51q8 -63 25 -193q12 -66 37 -195q119 147 237 297q215 246 301 246q14 0 29 -14l12 -27q-12 -31 -39 -43q-289 -332 -505 -622q47 -188 75 -273 q61 -193 123 -233q-18 -49 -74 -49q-84 0 -161 174q-27 57 -90 250q-96 -135 -191 -271q-160 -223 -176 -223q-66 0 -66 72z" />
<glyph unicode="Y" horiz-adv-x="806" d="M180 72q0 106 127 465q-61 264 -69 309q-37 184 -37 315q0 80 80 80q61 0 88 -197q10 -129 20 -256q9 -51 25 -153q455 698 559 698q51 0 51 -59q-63 -86 -346 -451q-178 -229 -236 -381q-53 -139 -96 -321q-33 -143 -78 -144q-39 0 -63.5 28t-24.5 67z" />
<glyph unicode="Z" horiz-adv-x="909" d="M-59 51q0 84 391 514q348 381 520 529q-225 0 -643 -101q-14 -4 -38 20.5t-24 41.5l7 18q113 72 366 123q225 45 389 45q41 0 84 -16q55 -23 56 -56q0 -37 -45 -75q-168 -143 -474 -500q-208 -243 -374 -479q207 41 411 41q100 0 101 -80q0 -25 -17.5 -37t-70.5 -12 q-184 0 -570 -78q-70 51 -69 102z" />
<glyph unicode="[" horiz-adv-x="606" d="M86 -209q0 199 109 707q113 526 202 712q37 74 211 74q76 0 76 -24q0 -25 -164 -58q-254 -875 -317 -1442q41 -6 151 -6q14 0 29 -6l10 -16q0 -53 -192 -54q-115 0 -115 113z" />
<glyph unicode="\" horiz-adv-x="468" d="M135 1247q0 18 14.5 35.5t32.5 17.5q20 0 44 -23.5t28 -45.5q92 -496 92 -1317q0 -53 -10 -74q-16 -31 -64 -30q-27 0 -36 18t-21 281q-6 158 -12 313q-10 215 -21 430q-18 340 -47 395z" />
<glyph unicode="]" horiz-adv-x="606" d="M-88 -299q2 23 164 57q254 869 317 1444q-45 4 -151 4q-16 0 -29 6l-8 19q0 51 192 51q115 0 115 -94q0 -203 -109 -719q-113 -541 -202 -719q-37 -72 -213 -72q-68 0 -76 23z" />
<glyph unicode="^" horiz-adv-x="2048" d="M422 901l520 557h162l520 -557h-158l-442 438l-442 -438h-160z" />
<glyph unicode="_" horiz-adv-x="1024" d="M0 -365h1024v-118h-1024v118z" />
<glyph unicode="`" horiz-adv-x="1024" d="M367 942l4 8l14 4h94q4 0 17 -8q8 -14 12 -26q10 -41 82 -179l-4 -12l-13 -2h-43q-6 0 -18 4q-20 16 -82.5 108.5t-62.5 102.5z" />
<glyph unicode="a" horiz-adv-x="536" d="M-117 88q0 131 101 318q110 206 226 206h1q47 0 96 -59q33 10 55 10q27 0 54.5 -14t27.5 -39q0 -10 -72.5 -168t-72.5 -225q0 -10 8 -21l10 -6q23 0 99 103q45 59 90 120q33 -18 33 -45q0 -55 -91.5 -164.5t-146.5 -109.5q-94 0 -94 123q0 21 4 39q-104 -190 -225 -191 q-47 0 -75 37t-28 86zM-12 72q0 -10 6 -21l10 -2q55 0 166 184q106 177 106 238q0 10 -10 20.5t-20 10.5q-74 0 -170 -180q-88 -166 -88 -250z" />
<glyph unicode="b" horiz-adv-x="540" d="M-88 51q0 133 147 580q152 454 203 454q12 0 39 -20q20 -16 39 -31l8 -12q-6 -16 -51 -59q-31 -31 -100 -242q-51 -153 -82 -270q120 151 216 151h1q104 0 104 -164q0 -143 -90 -303q-104 -182 -235 -182q-53 0 -115 53q-84 10 -84 45zM20 92q0 -72 66 -72q84 0 172 183 q80 164 80 260q0 49 -29 49q-55 0 -151 -113q-84 -98 -111 -165.5t-27 -141.5z" />
<glyph unicode="c" horiz-adv-x="450" d="M-74 123q0 135 86 313q98 207 215 207l41 -6q41 -23 82 -43q31 -27 31 -86q0 -55 -31 -129q-35 -88 -80 -88q-57 0 -57 53q0 39 20 100q17 52 33 101h-8q-70 0 -152 -193q-74 -174 -73 -262q0 -94 65 -94q98 0 193 115q68 96 137 190l27 -12l10 -19q0 -25 -66 -137 q-47 -82 -120 -133q-84 -57 -170 -57q-82 0 -132.5 49t-50.5 131z" />
<glyph unicode="d" horiz-adv-x="522" d="M-98 78q0 106 92 280q100 193 192 193q33 0 109 -57l88 258q100 293 143 292q76 0 76 -47q0 -14 -76 -194q-92 -223 -137 -359q-76 -219 -76 -333q0 -16 4 -29l17 -12q47 18 101 107t65 91l14 -6l6 -12q-14 -72 -74 -164q-72 -109 -137 -109q-86 0 -98 129 q-96 -200 -192 -200h-1q-55 0 -88 61q-29 51 -28 111zM0 41q0 -45 33 -45q57 0 149 197q58 122 99 251q-29 27 -43 27q-70 0 -158 -182q-80 -164 -80 -248z" />
<glyph unicode="e" horiz-adv-x="407" d="M-84 143q0 117 76 306q86 217 180 217l27 -4q2 0 80 -33q45 -18 45 -66q0 -104 -58 -211q-66 -125 -160 -125l-32 6l-29 23q-14 -57 -14 -117q0 -108 60 -108h1q92 0 205 155l106 160q10 -2 21 -12q10 -16 10 -27q0 -86 -125 -211q-131 -131 -239 -131q-154 0 -154 178z M78 352q0 -61 39 -61q41 0 71 90q27 74 27 127l-6 22l-19 9q-31 0 -71.5 -75t-40.5 -112z" />
<glyph unicode="f" horiz-adv-x="378" d="M-27 18q0 74 107 394q-86 0 -86 47q0 29 115 47q61 229 159 434q150 313 289 313q14 0 69.5 -71.5t55.5 -83.5q0 -14 -16 -29l-33 -12q-18 0 -40 30.5t-42 30.5q-100 0 -328 -606q17 1 32 1q107 0 107 -50q0 -43 -69 -53h-103q-49 -141 -74.5 -288t-88.5 -147 q-53 0 -54 43z" />
<glyph unicode="g" horiz-adv-x="501" d="M-229 -350q0 39 30 39q6 0 19 -8l16 -27q43 -18 109 -19q90 0 147 62q33 86 60 215q22 110 45 219q-119 -172 -195 -172q-113 0 -113 139q0 115 88 289q98 197 197 197q49 0 123 -64q41 10 51 10q72 0 72 -61q0 -6 -17 -43q-88 -195 -129 -393q-20 -111 -41 -221 q-29 -121 -81 -179q-71 -71 -203 -71h-4q-174 0 -174 88zM-37 68q0 -47 39 -48q51 0 156 179q102 172 102 237q0 47 -45 47q-63 0 -162 -176q-90 -163 -90 -239z" />
<glyph unicode="h" horiz-adv-x="501" d="M-115 4q0 141 191 619q197 493 276 493q27 0 35 -31q-182 -436 -209 -501q-115 -285 -188 -508q80 127 162 254q160 233 221 233q47 0 47 -51q0 -33 -76 -197.5t-76 -224.5q0 -12 4 -22l13 -7q33 0 100 99q76 111 94 123q37 -20 37 -45q0 -63 -92 -160.5t-158 -97.5 q-92 0 -92 104q0 75 47 227q-57 -98 -115 -198q-106 -166 -159 -166q-61 0 -62 57z" />
<glyph unicode="i" horiz-adv-x="307" d="M-59 150q0 72 26 190q31 131 64 178q29 41 96 41q14 0 28.5 -10t10.5 -23q-37 -104 -72 -209q-55 -164 -55 -202q0 -16 8 -33q16 -12 27 -12q47 0 119 106q49 70 96 139q37 -8 37 -39q-144 -294 -269 -294q-59 0 -90 57q-27 47 -26 111zM106.5 733.5q40.5 24.5 79.5 24.5 q53 0 54 -51q0 -37 -34 -66t-71 -29q-69 0 -69 58q0 39 40.5 63.5z" />
<glyph unicode="j" horiz-adv-x="217" d="M-551 -301l6 20l21 11q10 -2 18 -13l14 -28q92 -72 183 -72q47 0 76 12q41 41 122 381q39 174 78 350q23 94 33 121q31 82 80 82q59 0 59 -41q0 -27 -30 -59q-53 -188 -113 -459q-47 -225 -80 -295q-78 -162 -238 -162q-76 0 -145 39q-84 45 -84 113zM33 664 q0 37 32.5 64.5t69.5 27.5q68 0 68 -39q0 -41 -34 -74t-75 -33q-61 0 -61 54z" />
<glyph unicode="k" horiz-adv-x="501" d="M-133 -16q0 8 47 166q35 117 188 620q47 154 54 172q49 123 102 123q20 0 42 -14.5t22 -34.5q-82 -135 -146 -326q-16 -45 -102 -346q270 238 317 238q53 0 60 -19q-12 -23 -119 -114q-129 -113 -142 -125q35 -283 107 -283q39 0 111.5 121t83.5 121q33 -12 32 -37 q0 -78 -93 -182.5t-171 -104.5q-74 0 -127 96q-23 39 -63 162l-45 -35q-55 -250 -99 -250q-59 0 -59 52z" />
<glyph unicode="l" horiz-adv-x="407" d="M-49 281q1 10 33 17q36 7 59 30q133 500 264 835q-2 4 -2 21q0 29 35 51t66 22q39 0 84 -40.5t45 -79.5q0 -127 -162 -441q-121 -240 -242 -420q-12 -88 -12 -135q0 -100 53 -100q49 0 121 113q45 74 92 147q31 -8 45 -39q-27 -92 -98 -188q-90 -119 -176 -119 q-74 0 -113 68q-33 57 -33 141q0 32 6 61q-10 -4 -22 -4q-43 0 -43 60zM150 403q84 156 174 363q119 270 118 358l-6 17l-12 6q-12 -2 -18 -4q-158 -406 -256 -740z" />
<glyph unicode="m" horiz-adv-x="724" d="M-100 63q0 43 64.5 248t77.5 220.5t36 15.5q29 0 52.5 -23.5t23.5 -52.5q0 -8 -56 -86q-18 -25 -100 -328q248 453 315 453q35 0 47 -59q-23 -29 -55 -160q-29 -109 -37 -172q248 477 318 477q16 0 35 -27l26 -39l6 -18q-6 -27 -82 -162q-67 -115 -67 -202q0 -48 28 -48 q41 0 105 109q37 68 76 137q47 -16 47 -49q0 -51 -80 -166q-86 -123 -145 -123q-50 0 -107 88l-8 41q0 63 82 281l-119 -217q-106 -195 -154 -195q-63 0 -63 64q0 47 20 129q14 66 31 129q-55 -100 -108 -199q-86 -154 -119 -154q-90 0 -90 88z" />
<glyph unicode="n" horiz-adv-x="526" d="M-86 70q0 76 45 237q45 156 86 228q17 32 57 32h2q20 0 41 -13t21 -32q-37 -98 -76 -196q-41 -111 -55 -203q248 477 321 477q31 0 59.5 -20.5t28.5 -51.5q0 -16 -41 -49q-96 -217 -96 -368q0 -16 4 -31l8 -10l9 -4q31 0 99.5 116.5t82.5 118.5q33 -4 43 -39 q0 -57 -86 -170q-90 -119 -148 -119q-53 0 -83 47q-25 41 -25 97q0 102 31 233l-119 -213q-86 -156 -123 -155q-86 0 -86 88z" />
<glyph unicode="o" horiz-adv-x="473" d="M-86 109q0 100 74 260q84 180 170 180q43 0 59 -35l37 4q51 0 78 -59q20 -43 20 -103q47 14 86 60q45 55 68 67q12 0 24 -6q8 -12 9 -22q0 -47 -74 -114t-127 -79q-86 -319 -275 -319q-72 0 -110.5 46t-38.5 120zM33 98q0 -63 43 -63q68 0 125 139q51 121 51 203 q0 57 -37 57q-63 0 -127 -137q-55 -121 -55 -199z" />
<glyph unicode="p" horiz-adv-x="501" d="M-195 -438q0 147 195 880q80 299 127 299q51 0 51 -41q1 -4 -69 -235q104 141 153 141q61 0 94 -65q27 -51 27 -121q0 -133 -68 -277q-82 -170 -200 -170q-86 0 -115 70q-29 -115 -57 -229q-35 -152 -35 -240q0 -20 18 -37q0 -39 -43 -39q-78 0 -78 64zM29 121 q10 -66 67 -66q78 0 137 156q49 129 50 219q0 63 -31 64q-51 0 -135 -162q-59 -119 -88 -211z" />
<glyph unicode="q" horiz-adv-x="550" d="M-84 145q0 92 109 279q112 194 181 194h1q70 0 149 -61q35 12 47 12q23 0 47.5 -18.5t24.5 -40.5q-2 -6 -35 -70q-72 -137 -147 -415q-66 -240 -98 -437q8 -8 22 -26q0 -18 -38 -34.5t-60 -16.5q-20 0 -29.5 14t-13.5 33q4 39 16 118q33 181 127 457q-121 -143 -194 -143 q-41 0 -76 59q-33 51 -33 96zM-4 109l6 -23l16 -8q74 0 187 168q106 160 106 237q0 8 -11 20.5t-19 12.5q-70 0 -177.5 -164.5t-107.5 -242.5z" />
<glyph unicode="r" horiz-adv-x="436" d="M-68 225q68 154 109 310q-35 29 -35 45q0 37 38 65.5t77 28.5q51 0 51 -43q0 -23 -10 -56l67 -20q14 25 43 47q23 6 27 6q23 0 47.5 -16.5t24.5 -36.5q0 2 -45 -76q-51 -88 -82 -166q-45 -111 -45 -190q0 -45 28 -55q51 0 124 129t79 129q37 0 37 -35q0 -63 -90 -182 q-96 -127 -172 -127q-121 0 -121 133q0 121 84 331l-55 17q-90 -268 -154 -268l-20 8q-6 12 -7 22z" />
<glyph unicode="s" horiz-adv-x="342" d="M-197 33q219 328 267 600q4 25 11 51.5t36 26.5q23 0 59.5 -20.5t40.5 -39.5q-61 -115 -63 -123q-25 -59 -25 -139q0 -61 30.5 -178t30.5 -174q0 -45 -24 -86q-31 -49 -72 -49q-31 0 -98 49q-85 59 -105 67q-20 -14 -63 -36q-25 6 -25 51zM-63 86q70 -35 147 -55 q0 49 -18 131q-12 66 -27 129q-30 -101 -102 -205z" />
<glyph unicode="t" horiz-adv-x="303" d="M-160 817q0 35 131 51q84 10 164 11q27 84 33 98q29 63 72 63q61 0 61 -39q-18 -39 -43 -116q102 8 199 8q153 0 153 -61q0 -11 -12 -19q-125 -8 -375 -27q-176 -479 -176 -665q0 -59 35 -60q66 0 176 230q29 59 35 59q16 0 32.5 -12t16.5 -27q0 -76 -96 -198 q-102 -133 -189 -133q-111 0 -110 161q0 205 147 631q-111 -8 -172 -8q-82 0 -82 53z" />
<glyph unicode="u" horiz-adv-x="559" d="M-61 119q0 96 57 278q66 213 131 213q27 0 47.5 -20.5t20.5 -46.5v1q-4 0 -74 -168q-74 -179 -74 -261q0 -55 35 -56q72 0 244 459q0 31 19.5 55.5t47.5 24.5q27 0 51.5 -19.5t24.5 -46.5v1q-3 1 -65 -157q-64 -166 -64 -272l4 -41l8 -10l6 -4q47 0 109.5 124t79.5 128 q31 -8 45 -39q0 -68 -86 -178q-88 -117 -160 -117q-110 0 -110 149q0 27 4 56q-88 -188 -183 -188q-49 0 -83.5 42t-34.5 93z" />
<glyph unicode="v" horiz-adv-x="436" d="M-47 117q0 119 22 258q35 200 94 200h1q23 0 54.5 -19t31.5 -40l-9 -22q-86 -88 -86 -410q131 276 162 334q145 268 221 268q57 0 58 -27q-12 -14 -35 -45q-98 -133 -264 -446q-25 -49 -49 -98q-37 -74 -58.5 -84.5t-66.5 -10.5q-59 0 -72 43q-4 14 -4 99z" />
<glyph unicode="w" horiz-adv-x="692" d="M-76 88q0 84 51 252q59 195 119 195q25 0 47.5 -20.5t28.5 -45.5q-2 -4 -37 -49q-23 -29 -59.5 -165t-36.5 -179l4 -23l8 -6q47 0 232 445l12 10l10 2q25 0 58.5 -15.5t33.5 -37.5q-27 -70 -55 -138q-29 -78 -29 -147q0 -16 4 -57l13 -9q51 0 125 207q47 137 75 262 q-12 29 -22 56l10 16l29 8q27 0 53.5 -21.5t26.5 -47.5q0 -121 -93 -340q-104 -250 -204 -250q-117 0 -117 147q-78 -192 -169 -192h-1q-47 0 -82 47t-35 96z" />
<glyph unicode="x" horiz-adv-x="507" d="M-119 -49q0 37 88 147q49 61 101 123q-41 137 -41 203q0 43 35.5 84t78.5 41q25 0 39 -90q6 -49 11 -99q248 272 299 273q14 0 31.5 -11.5t17.5 -25.5q0 -18 -68 -70q-59 -45 -137 -143q-59 -76 -119 -152q33 -176 84 -176q55 35 105 129q55 106 88 138q39 -14 53 -48 q0 -74 -94 -188q-98 -121 -181 -121q-104 1 -161 146q-33 -43 -152 -195q-14 -6 -27 -6q-51 0 -51 41z" />
<glyph unicode="y" horiz-adv-x="487" d="M-250 -213q0 20 8 37q23 12 37 12q25 0 41 -90q70 -49 162 -49q10 0 28.5 2t26.5 2q51 27 129 469q-76 -145 -151 -145l-25 6q-43 51 -45 57q-16 27 -16 72q0 100 43 248q53 182 125 182q23 0 48 -16.5t27 -36.5l-6 -17l-18 -10q-111 -221 -111 -363l2 -16l11 -4 q47 0 141 199q82 174 98 252q14 71 70 71h2q59 0 72 -43l10 -12l2 -16l-8 -21l-21 -16q-106 -195 -151 -461q-18 -115 -35 -230q-31 -119 -119 -178t-170 -59q-63 0 -135 58.5t-72 115.5z" />
<glyph unicode="z" horiz-adv-x="559" d="M-51 66q0 70 463 481q-51 0 -136 -12q-127 -20 -133 -21h-4q-32 0 -43 61q233 74 371 74q31 0 58.5 -20.5t27.5 -50.5q0 -23 -207 -230l-250 -250q68 16 195 35q25 4 51.5 -12.5t26.5 -40.5q0 -10 -4 -21q-27 -12 -160 -50t-150 -38q-33 0 -69.5 32t-36.5 63z" />
<glyph unicode="{" horiz-adv-x="1024" d="M172 467v127h23q16 -2 22 -2q147 0 205 88q45 70 45 213q0 41 -4 126t-4 128q0 211 102 278q78 51 297 52v-127q-14 2 -45 2q-119 0 -162 -47q-49 -51 -49 -189q0 -37 4 -117.5t4 -121.5q0 -293 -202 -347q203 -57 202 -344q0 -41 -4 -123.5t-4 -119.5q0 -133 45 -182.5 t211 -49.5v-125h-35q-184 0 -262 52q-102 68 -102 301q0 35 2 108.5t2 108.5q0 152 -37 223q-53 92 -186 92q-31 0 -68 -4z" />
<glyph unicode="|" horiz-adv-x="1024" d="M449 -483v2048h126v-2048h-126z" />
<glyph unicode="}" horiz-adv-x="1024" d="M166 -289q14 -2 45 -2q119 0 165 48t46 180q0 37 -5 120.5t-5 126.5q0 289 204 346q-205 57 -204 340q0 45 5 130t5 122q0 131 -46 180.5t-210 49.5v125h35q225 0 305 -95q63 -72 63 -254q0 -35 -3 -121.5t-3 -138.5q0 -150 55 -213q39 -45 111 -55q62 -4 125 -6v-127 q-14 2 -45 2q-147 0 -207 -88q-45 -68 -45 -211q0 -41 5 -127t5 -127q0 -211 -102 -281q-72 -49 -299 -49v125z" />
<glyph unicode="~" horiz-adv-x="1705" d="M178 461v133q215 145 387 145q102 0 290.5 -69.5t289.5 -69.5q168 0 385 158v-131q-113 -78 -207 -111q-100 -33 -233 -33q-66 0 -249.5 69t-277.5 69q-164 0 -385 -160z" />
<glyph unicode="&#xa2;" d="M158 434q0 137 125 359q133 238 256 251q35 96 69 193q72 174 115 174q14 0 31 -4l10 -18q0 -31 -51 -179q-45 -125 -72 -186q39 -27 76 -53q43 -33 43 -78q0 -66 -31 -123q-37 -68 -96 -68q-66 0 -66 50q0 33 54 155l-7 11l-12 6q-92 0 -207 -230q-106 -209 -106 -315 q0 -90 88 -90q55 0 122.5 38t104.5 83l12 -4q23 -16 31 -37q0 -63 -104 -111q-86 -39 -160 -39l-80 -244q-51 -154 -78 -153q-55 0 -55 39q0 88 111 375q-123 53 -123 198z" />
<glyph unicode="&#xa3;" d="M-94 109q0 59 55 111t115 52q70 0 157 -32q20 43 58 221h-133q-100 8 -101 55q0 47 254 47q33 244 107 432q113 297 276 297q66 0 144 -57q68 -18 114 -57q57 -49 58 -111q0 -35 -23.5 -65.5t-56.5 -30.5q-23 0 -39.5 21.5t-16.5 43.5q0 8 5.5 27.5t5.5 28.5q0 37 -43 57 q-33 16 -74 16q-135 0 -223 -245q-29 -78 -86 -355q274 0 274 -71q0 -4 -8 -17h-82q-35 0 -103.5 -3t-101.5 -3q-37 -145 -98 -264q383 -123 381 -123q16 0 51 24.5t49 24.5t31 -8l12 -21q-51 -152 -141 -151q-45 0 -442 153q-117 -145 -187 -145q-59 0 -121 43 q-68 49 -67 105zM-33 139q0 -31 51.5 -68.5t83.5 -37.5q36 -1 93 108q-125 49 -154 49q-20 0 -47 -16t-27 -35z" />
<glyph unicode="&#xa5;" d="M80 602q0 14 71.5 23.5t233.5 9.5l-31 135q-12 0 -53 -3t-65 -3q-109 0 -109 67l8 13q37 12 101 14q51 0 102 2q-25 135 -39 301q-4 35 18.5 57.5t57.5 22.5q63 0 96 -283l37 -323q125 195 266 387q229 311 289 311q20 0 34.5 -19.5t14.5 -39.5q-51 -70 -319 -414 q199 -33 198 -59q0 -16 -8 -31l-254 6l-102 -141q317 0 317 -62q0 -16 -8 -30l-80 2h-289q-74 -170 -123 -375q-45 -188 -88 -188q-33 0 -54 28.5t-21 61.5q0 117 127 465l-2 6h-132q-92 -2 -129 -2q-66 0 -65 61z" />
<glyph unicode="&#xa8;" horiz-adv-x="1024" d="M342 797q0 39 26.5 72.5t63.5 33.5q51 0 51 -59q0 -37 -27.5 -70t-64.5 -33q-49 0 -49 56zM563 797q0 39 26.5 72.5t63.5 33.5q53 0 54 -55q0 -41 -27 -74t-68 -33q-49 0 -49 56z" />
<glyph unicode="&#xa9;" horiz-adv-x="1705" d="M119 725q0 303 215 519t518 216q309 0 522 -213t213 -522q0 -303 -216 -519t-519 -216q-299 0 -516 217t-217 518zM207 725q0 -262 191.5 -453.5t453.5 -191.5q266 0 457.5 189.5t191.5 455.5q0 270 -189.5 458.5t-459.5 188.5q-266 0 -455.5 -190.5t-189.5 -456.5z M465 721q0 197 96 321q106 135 299 136q129 0 221 -68q100 -74 113 -199h-129q-16 76 -73.5 120t-135.5 44q-133 0 -197 -114q-51 -92 -51 -238q0 -139 54 -231q66 -113 194 -113q86 0 145.5 49t73.5 133h129q-12 -135 -117 -215q-96 -72 -237 -72q-186 0 -291 134 q-94 121 -94 313z" />
<glyph unicode="&#xab;" horiz-adv-x="606" d="M59 281q14 39 72.5 108.5t91.5 91.5q18 0 45 -10t27 -25q-22 -36 -139 -163q12 -49 61 -154q0 -39 -72 -39q-31 29 -58.5 89.5t-27.5 101.5zM258 281q14 37 72.5 108.5t91.5 91.5q18 0 45 -10t27 -25q-23 -36 -140 -163q10 -39 64 -154q0 -39 -72 -39q-29 29 -58.5 90.5 t-29.5 100.5z" />
<glyph unicode="&#xad;" horiz-adv-x="702" d="M84 332q78 31 324 30q137 0 137 -86q0 -12 -8 -26q-18 -14 -181 -25q-133 -10 -202 -10q-53 0 -66 33q-4 14 -4 84z" />
<glyph unicode="&#xae;" horiz-adv-x="1705" d="M119 725q0 305 215 520t518 215q307 0 521 -214t214 -521q0 -301 -217 -518t-518 -217t-517 217t-216 518zM207 725q0 -264 189.5 -454.5t453.5 -190.5q268 0 459.5 186.5t191.5 454.5q0 272 -188.5 461.5t-460.5 189.5q-268 0 -456.5 -189.5t-188.5 -457.5zM561 317v840 h311q350 0 351 -231q0 -90 -53.5 -149.5t-143.5 -74.5l188 -385h-157l-176 365h-179v-365h-141zM702 774h148q227 0 227 141q0 150 -231 150h-144v-291z" />
<glyph unicode="&#xb4;" horiz-adv-x="1024" d="M410 739q35 29 75 101q47 84 68 108l20 6h99l12 -4l6 -8q-4 -18 -83 -103t-115 -108q-20 -4 -21 -4h-45l-12 2z" />
<glyph unicode="&#xb8;" horiz-adv-x="1024" d="M170 -307l14 31l13 10q98 -27 135 -27q29 0 53.5 16.5t24.5 45.5q0 45 -41 55q-12 4 -76 4l-8 2l-4 6q2 12 47 164h67l-35 -117q145 0 146 -119q0 -63 -48 -94.5t-116 -31.5q-172 0 -172 55z" />
<glyph unicode="&#xbb;" horiz-adv-x="606" d="M33 123q0 19 139 166q-10 39 -63 153q0 39 71 39q29 -33 58 -92q31 -66 30 -102q-20 -37 -78 -107q-63 -76 -88 -90q-47 0 -69 33zM231 123q1 19 140 166q-10 43 -62 153q0 39 72 39q29 -31 57 -90q29 -66 29 -104q-18 -35 -80 -107q-63 -78 -86 -90q-51 0 -70 33z" />
<glyph unicode="&#xc1;" horiz-adv-x="919" d="M-76 2q0 98 205 492q137 270 268 489q174 293 285 293q35 0 90 -23q68 -25 68 -53q0 -12 -19 -47q-23 -41 -24 -49q-20 -57 -47 -326q-23 -225 -23 -688q0 -78 -78 -78q-47 0 -61 135q-4 27 -8 168q-150 -12 -428 -59q-35 -84 -70 -170q-63 -125 -123 -125q-35 0 -35 41z M231 420q181 10 349 18q0 311 59 695q-156 -229 -408 -713zM607 1403q35 29 75 101q47 84 68 108l20 6h99l12 -4l6 -8q-4 -18 -83 -103t-115 -108q-20 -4 -21 -4h-45l-12 2z" />
<glyph unicode="&#xc9;" horiz-adv-x="929" d="M16 76q0 37 66 274l219 793q25 88 72 104q18 6 137 6q61 0 270 -22q203 -20 213 -25l8 -18q0 -47 -180 -66q-117 -6 -231 -14l-135 -18q-80 -238 -162 -541q240 27 414 26q90 0 90 -45q0 -55 -47 -59q-164 -16 -494 -57q-49 -166 -84 -287q395 53 516 53q86 0 86 -39 q0 -45 -96 -55q-78 -8 -289 -66q-190 -51 -270 -51q-41 0 -72 32t-31 75zM611 1403q35 29 75 101q47 84 68 108l20 6h99l12 -4l6 -8q-4 -18 -83 -103t-115 -108q-20 -4 -21 -4h-45l-12 2z" />
<glyph unicode="&#xcd;" horiz-adv-x="468" d="M6 53q0 88 270 930q94 293 179 293q20 0 50 -24.5t30 -45.5q-375 -973 -375 -1188q0 -35 -51 -34q-102 0 -103 69zM381 1403q35 29 75 101q47 84 68 108l20 6h99l12 -4l6 -8q-4 -18 -83 -103t-115 -108q-20 -4 -21 -4h-45l-12 2z" />
<glyph unicode="&#xd3;" horiz-adv-x="1101" d="M35 350q0 217 141 461q129 225 316 373q127 100 202 100q61 1 133 -65q240 -29 240 -336q0 -293 -168 -586q-193 -340 -463 -340q-180 0 -290.5 107.5t-110.5 285.5zM176 317q0 -250 217 -249q238 0 406 317q141 268 141 530q0 227 -164 228q-201 0 -407 -316 q-193 -293 -193 -510zM697 1403q35 29 75 101q47 84 68 108l20 6h99l12 -4l6 -8q-4 -18 -83 -103t-115 -108q-20 -4 -21 -4h-45l-12 2z" />
<glyph unicode="&#xd6;" horiz-adv-x="1101" d="M35 350q0 217 141 461q129 225 316 373q127 100 202 100q61 1 133 -65q240 -29 240 -336q0 -293 -168 -586q-193 -340 -463 -340q-180 0 -290.5 107.5t-110.5 285.5zM176 317q0 -250 217 -249q238 0 406 317q141 268 141 530q0 227 -164 228q-201 0 -407 -316 q-193 -293 -193 -510zM629 1461q0 39 26.5 72.5t63.5 33.5q51 0 51 -59q0 -37 -27.5 -70t-64.5 -33q-49 0 -49 56zM850 1461q0 39 26.5 72.5t63.5 33.5q53 0 54 -55q0 -41 -27 -74t-68 -33q-49 0 -49 56z" />
<glyph unicode="&#xda;" horiz-adv-x="1019" d="M74 229q0 162 135 564q145 440 252 440q33 0 62.5 -18.5t29.5 -49.5q0 -35 -33 -49q-299 -653 -299 -958q0 -106 58 -107q45 0 129 78q72 68 143 170q78 111 106 197l160 481q29 80 86 237q25 66 86 66q129 0 129 -72q0 -43 -35 -55q-123 -260 -211 -514 q-123 -350 -122 -533q0 -10 10 -59q-14 -41 -53 -41q-80 0 -80 166q0 41 4 76q-172 -283 -324 -283q-111 0 -174 78q-59 72 -59 186zM656 1403q35 29 75 101q47 84 68 108l20 6h99l12 -4l6 -8q-4 -18 -83 -103t-115 -108q-20 -4 -21 -4h-45l-12 2z" />
<glyph unicode="&#xdc;" horiz-adv-x="1019" d="M74 229q0 162 135 564q145 440 252 440q33 0 62.5 -18.5t29.5 -49.5q0 -35 -33 -49q-299 -653 -299 -958q0 -106 58 -107q45 0 129 78q72 68 143 170q78 111 106 197l160 481q29 80 86 237q25 66 86 66q129 0 129 -72q0 -43 -35 -55q-123 -260 -211 -514 q-123 -350 -122 -533q0 -10 10 -59q-14 -41 -53 -41q-80 0 -80 166q0 41 4 76q-172 -283 -324 -283q-111 0 -174 78q-59 72 -59 186zM588 1461q0 39 26.5 72.5t63.5 33.5q51 0 51 -59q0 -37 -27.5 -70t-64.5 -33q-49 0 -49 56zM809 1461q0 39 26.5 72.5t63.5 33.5 q53 0 54 -55q0 -41 -27 -74t-68 -33q-49 0 -49 56z" />
<glyph unicode="&#xe1;" horiz-adv-x="536" d="M-117 88q0 131 101 318q111 207 227 206q47 0 96 -59q33 10 55 10q27 0 54.5 -14t27.5 -39q0 -10 -72.5 -168t-72.5 -225q0 -10 8 -21l10 -6q23 0 99 103q45 59 90 120q33 -18 33 -45q0 -55 -91.5 -164.5t-146.5 -109.5q-94 0 -94 123q0 21 4 39q-104 -190 -225 -191 q-47 0 -75 37t-28 86zM-12 72q0 -10 6 -21l10 -2q55 0 166 184q106 177 106 238q0 10 -10 20.5t-20 10.5q-74 0 -170 -180q-88 -166 -88 -250zM203 739q35 29 75 101q47 84 68 108l20 6h99l12 -4l6 -8q-4 -18 -83 -103t-115 -108q-20 -4 -21 -4h-45l-12 2z" />
<glyph unicode="&#xe9;" horiz-adv-x="407" d="M-84 143q0 117 76 306q86 217 180 217l27 -4q2 0 80 -33q45 -18 45 -66q0 -104 -58 -211q-66 -125 -160 -125l-32 6l-29 23q-14 -57 -14 -117q0 -109 61 -108q92 0 205 155l106 160q10 -2 21 -12q10 -16 10 -27q0 -86 -125 -211q-131 -131 -239 -131q-154 0 -154 178z M78 352q0 -61 39 -61q41 0 71 90q27 74 27 127l-6 22l-19 9q-31 0 -71.5 -75t-40.5 -112zM140 739q35 29 75 101q47 84 68 108l20 6h99l12 -4l6 -8q-4 -18 -83 -103t-115 -108q-20 -4 -21 -4h-45l-12 2z" />
<glyph unicode="&#xed;" horiz-adv-x="307" d="M-59 150q0 72 26 190q31 131 64 178q29 41 96 41q14 0 28.5 -10t10.5 -23q-37 -104 -72 -209q-55 -164 -55 -202q0 -16 8 -33q16 -12 27 -12q47 0 119 106q49 70 96 139q37 -8 37 -39q-144 -294 -269 -294q-59 0 -90 57q-27 47 -26 111zM59 739q39 31 78 103 q45 82 66 106l20 6h99l14 -4l4 -8q-4 -18 -83 -103t-116 -108l-20 -4h-45l-13 2z" />
<glyph unicode="&#xf3;" horiz-adv-x="473" d="M-86 109q0 100 74 260q84 180 170 180q43 0 59 -35l37 4q51 0 78 -59q20 -43 20 -103q47 14 86 60q45 55 68 67q12 0 24 -6q8 -12 9 -22q0 -47 -74 -114t-127 -79q-86 -319 -275 -319q-72 0 -110.5 46t-38.5 120zM33 98q0 -63 43 -63q68 0 125 139q51 121 51 203 q0 57 -37 57q-63 0 -127 -137q-55 -121 -55 -199zM136 739q35 29 75 101q47 84 68 108l20 6h99l12 -4l6 -8q-4 -18 -83 -103t-115 -108q-20 -4 -21 -4h-45l-12 2z" />
<glyph unicode="&#xf6;" horiz-adv-x="473" d="M-86 109q0 100 74 260q84 180 170 180q43 0 59 -35l37 4q51 0 78 -59q20 -43 20 -103q47 14 86 60q45 55 68 67q12 0 24 -6q8 -12 9 -22q0 -47 -74 -114t-127 -79q-86 -319 -275 -319q-72 0 -110.5 46t-38.5 120zM33 98q0 -63 43 -63q68 0 125 139q51 121 51 203 q0 57 -37 57q-63 0 -127 -137q-55 -121 -55 -199zM68 797q0 39 26.5 72.5t63.5 33.5q51 0 51 -59q0 -37 -27.5 -70t-64.5 -33q-49 0 -49 56zM289 797q0 39 26.5 72.5t63.5 33.5q53 0 54 -55q0 -41 -27 -74t-68 -33q-49 0 -49 56z" />
<glyph unicode="&#xfa;" horiz-adv-x="559" d="M-61 119q0 96 57 278q66 213 131 213q27 0 47.5 -20.5t20.5 -46.5q0 12 -74 -167t-74 -261q0 -55 35 -56q72 0 244 459q0 31 19.5 55.5t47.5 24.5q27 0 51.5 -19.5t24.5 -46.5q0 10 -64.5 -156.5t-64.5 -271.5l4 -41l8 -10l6 -4q47 0 109.5 124t79.5 128q31 -8 45 -39 q0 -68 -86 -178q-88 -117 -160 -117q-111 0 -110 152q0 24 4 53q-88 -188 -183 -188q-49 0 -83.5 42t-34.5 93zM215 739q35 29 75 101q47 84 68 108l20 6h99l12 -4l6 -8q-4 -18 -83 -103t-115 -108q-20 -4 -21 -4h-45l-12 2z" />
<glyph unicode="&#xfc;" horiz-adv-x="559" d="M-61 119q0 96 57 278q66 213 131 213q27 0 47.5 -20.5t20.5 -46.5q0 12 -74 -167t-74 -261q0 -55 35 -56q72 0 244 459q0 31 19.5 55.5t47.5 24.5q27 0 51.5 -19.5t24.5 -46.5q0 10 -64.5 -156.5t-64.5 -271.5l4 -41l8 -10l6 -4q47 0 109.5 124t79.5 128q31 -8 45 -39 q0 -68 -86 -178q-88 -117 -160 -117q-111 0 -110 152q0 24 4 53q-88 -188 -183 -188q-49 0 -83.5 42t-34.5 93zM147 797q0 39 26.5 72.5t63.5 33.5q51 0 51 -59q0 -37 -27.5 -70t-64.5 -33q-49 0 -49 56zM368 797q0 39 26.5 72.5t63.5 33.5q53 0 54 -55q0 -41 -27 -74 t-68 -33q-49 0 -49 56z" />
<glyph unicode="&#x150;" horiz-adv-x="1101" d="M35 350q0 217 141 461q129 225 316 373q127 100 202 100q61 1 133 -65q240 -29 240 -336q0 -293 -168 -586q-193 -340 -463 -340q-180 0 -290.5 107.5t-110.5 285.5zM176 317q0 -250 217 -249q238 0 406 317q141 268 141 530q0 227 -164 228q-201 0 -407 -316 q-193 -293 -193 -510zM731 1403l2 6q16 6 70 92q59 96 71 111q20 6 21 6h98l13 -2l6 -10q0 -6 -6 -13q-29 -39 -93 -104q-90 -98 -120 -98h-45l-15 4zM950 1403q4 6 15 18q51 80 129 191l20 6h98l15 -2l4 -10q-4 -18 -83 -103.5t-116 -107.5l-20 -4h-45l-13 4z" />
<glyph unicode="&#x151;" horiz-adv-x="473" d="M-86 109q0 100 74 260q84 180 170 180q43 0 59 -35l37 4q51 0 78 -59q20 -43 20 -103q47 14 86 60q45 55 68 67q12 0 24 -6q8 -12 9 -22q0 -47 -74 -114t-127 -79q-86 -319 -275 -319q-72 0 -110.5 46t-38.5 120zM33 98q0 -63 43 -63q68 0 125 139q51 121 51 203 q0 57 -37 57q-63 0 -127 -137q-55 -121 -55 -199zM92 739q39 31 78 103q45 82 66 106l20 6h98l15 -4l4 -8q-4 -18 -83 -103t-116 -108l-20 -4h-45l-13 2zM303 739q45 74 143 209q20 6 21 6h98l13 -4l6 -8q-2 -14 -84 -102t-115 -109l-20 -4h-46l-14 2z" />
<glyph unicode="&#x170;" horiz-adv-x="1019" d="M74 229q0 162 135 564q145 440 252 440q33 0 62.5 -18.5t29.5 -49.5q0 -35 -33 -49q-299 -653 -299 -958q0 -106 58 -107q45 0 129 78q72 68 143 170q78 111 106 197l160 481q29 80 86 237q25 66 86 66q129 0 129 -72q0 -43 -35 -55q-123 -260 -211 -514 q-123 -350 -122 -533q0 -10 10 -59q-14 -41 -53 -41q-80 0 -80 166q0 41 4 76q-172 -283 -324 -283q-111 0 -174 78q-59 72 -59 186zM592 1403q29 37 63 86l66 104q6 10 12 19q20 6 21 6h100l12 -2l4 -10q-4 -18 -82.5 -103.5t-115.5 -107.5q-20 -4 -21 -4h-45l-12 4z M811 1403l2 6q16 6 70 92q59 96 71 111q20 6 21 6h98l12 -2l7 -10q-4 -18 -89 -106.5t-110 -104.5q-20 -4 -21 -4h-45l-14 4z" />
<glyph unicode="&#x171;" horiz-adv-x="559" d="M-61 119q0 96 57 278q66 213 131 213q27 0 47.5 -20.5t20.5 -46.5q0 12 -74 -167t-74 -261q0 -55 35 -56q72 0 244 459q0 31 19.5 55.5t47.5 24.5q27 0 51.5 -19.5t24.5 -46.5q0 10 -64.5 -156.5t-64.5 -271.5l4 -41l8 -10l6 -4q47 0 109.5 124t79.5 128q31 -8 45 -39 q0 -68 -86 -178q-88 -117 -160 -117q-111 0 -110 152q0 24 4 53q-88 -188 -183 -188q-49 0 -83.5 42t-34.5 93zM164 739q51 74 125 183q4 10 16 26q20 6 21 6h100l12 -4l4 -8q-4 -18 -82.5 -103t-115.5 -108q-20 -4 -21 -4h-45l-12 2zM373 739q35 29 76 101q47 84 67 108 q20 6 21 6h98l12 -4l6 -8q-4 -18 -82.5 -103t-115.5 -108q-20 -4 -21 -4h-45l-12 2z" />
<glyph unicode="&#x2c6;" horiz-adv-x="1024" d="M322 795l2 8q43 41 125 131l2 6l12 12l14 4h101l18 -6q25 -25 59 -84q41 -66 45 -96l-2 -8q-37 -27 -67 -31q-23 10 -25 29q-23 45 -78 127q-117 -135 -151 -152h-8q-45 41 -47 60z" />
<glyph unicode="&#x2da;" horiz-adv-x="1024" d="M377 887q0 61 45 107t106 46q66 0 112 -43.5t46 -109.5t-44 -111t-110 -45t-110.5 45t-44.5 111zM455 887q0 -31 23.5 -54.5t53.5 -23.5q33 0 54.5 22.5t21.5 55.5q0 31 -22.5 53.5t-53.5 22.5q-33 0 -55 -21.5t-22 -54.5z" />
<glyph unicode="&#x2dc;" horiz-adv-x="1024" d="M324 766v4q-2 45 38.5 87t86.5 42q33 0 84 -29.5t77 -29.5q20 0 39 20q25 29 33 33h45l8 -6q0 -49 -34.5 -88t-84.5 -39q-31 0 -84.5 27.5t-82.5 27.5q-27 0 -48.5 -25.5t-25.5 -25.5h-45z" />
<glyph unicode="&#x2000;" horiz-adv-x="813" />
<glyph unicode="&#x2001;" horiz-adv-x="1626" />
<glyph unicode="&#x2002;" horiz-adv-x="813" />
<glyph unicode="&#x2003;" horiz-adv-x="1626" />
<glyph unicode="&#x2004;" horiz-adv-x="542" />
<glyph unicode="&#x2005;" horiz-adv-x="406" />
<glyph unicode="&#x2006;" horiz-adv-x="271" />
<glyph unicode="&#x2007;" horiz-adv-x="271" />
<glyph unicode="&#x2008;" horiz-adv-x="203" />
<glyph unicode="&#x2009;" horiz-adv-x="325" />
<glyph unicode="&#x200a;" horiz-adv-x="90" />
<glyph unicode="&#x2010;" horiz-adv-x="702" d="M84 332q78 31 324 30q137 0 137 -86q0 -12 -8 -26q-18 -14 -181 -25q-133 -10 -202 -10q-53 0 -66 33q-4 14 -4 84z" />
<glyph unicode="&#x2011;" horiz-adv-x="702" d="M84 332q78 31 324 30q137 0 137 -86q0 -12 -8 -26q-18 -14 -181 -25q-133 -10 -202 -10q-53 0 -66 33q-4 14 -4 84z" />
<glyph unicode="&#x2012;" horiz-adv-x="702" d="M84 332q78 31 324 30q137 0 137 -86q0 -12 -8 -26q-18 -14 -181 -25q-133 -10 -202 -10q-53 0 -66 33q-4 14 -4 84z" />
<glyph unicode="&#x2013;" horiz-adv-x="1024" d="M-109 285q0 55 41 73q74 -12 308 -12q106 0 317 3t317 3q20 0 35 -8q8 -20 9 -49v-14q0 -41 -72 -52q-16 -2 -105 -2h-725q-59 0 -79 4q-45 12 -46 54z" />
<glyph unicode="&#x2014;" horiz-adv-x="2048" d="M-102 285q0 55 41 73q74 -12 307 -12q276 0 829.5 3t829.5 3q20 0 37 -6q6 -23 6 -51v-14q0 -41 -72 -52q-16 -2 -104 -2h-1749q-125 0 -125 58z" />
<glyph unicode="&#x2018;" horiz-adv-x="507" d="M297 1004q0 37 27.5 159.5t37.5 129.5t35 7q14 0 27 -8q4 -25 4 -24q0 -309 -94 -310q-37 0 -37 46z" />
<glyph unicode="&#x2019;" horiz-adv-x="507" d="M307 997q0 53 43 170q51 133 96 133q41 0 41 -40q0 -23 -34 -107q-18 -51 -35 -100q-35 -82 -72 -82q-14 0 -26.5 8t-12.5 18z" />
<glyph unicode="&#x201a;" horiz-adv-x="507" d="M37 -131q61 303 139 303q14 0 29 -8q12 -23 12 -33q0 -18 -37 -108q-18 -51 -37 -105q-32 -76 -73 -76q-10 0 -27 6z" />
<glyph unicode="&#x201c;" horiz-adv-x="681" d="M297 1004q0 37 27.5 159.5t37.5 129.5t35 7q14 0 27 -8q4 -25 4 -24q0 -309 -94 -310q-37 0 -37 46zM469 1004q0 39 28.5 160.5t34.5 127.5q14 8 39 8q12 0 25 -6q4 -27 4 -26q0 -309 -92 -310q-39 0 -39 46z" />
<glyph unicode="&#x201d;" horiz-adv-x="681" d="M307 997q0 53 43 170q51 133 96 133q41 0 41 -43q0 -18 -94 -247q-16 -39 -47 -39q-14 0 -26.5 8t-12.5 18zM483 997q0 57 45 174q49 129 95 129q41 0 41 -38q0 -16 -97 -252q-16 -39 -47 -39q-12 0 -24.5 8t-12.5 18z" />
<glyph unicode="&#x201e;" horiz-adv-x="681" d="M37 -131q61 303 139 303q41 0 41 -43q0 -16 -37 -106q-18 -51 -37 -105q-32 -76 -73 -76q-10 0 -27 6zM213 -131q0 57 45 174q49 129 94 129q41 0 41 -39q0 -23 -37 -113q-18 -51 -37 -102q-32 -76 -73 -76q-10 0 -21.5 8.5t-11.5 18.5z" />
<glyph unicode="&#x2026;" horiz-adv-x="2048" d="M131 43q0 53 41 91t94 38q68 0 68 -61q0 -39 -38 -90.5t-75 -51.5q-90 0 -90 74zM813 43q0 53 41 91t94 38q68 0 68 -61q0 -39 -38 -90.5t-75 -51.5q-90 0 -90 74zM1497 43q0 53 41 91t94 38q68 0 68 -61q0 -39 -38 -90.5t-75 -51.5q-90 0 -90 74z" />
<glyph unicode="&#x202f;" horiz-adv-x="325" />
<glyph unicode="&#x2039;" horiz-adv-x="407" d="M59 281q14 39 72.5 108.5t91.5 91.5q18 0 45 -10t27 -25q-22 -36 -139 -163q12 -49 61 -154q0 -39 -72 -39q-31 29 -58.5 89.5t-27.5 101.5z" />
<glyph unicode="&#x203a;" horiz-adv-x="407" d="M33 123q0 19 139 166q-10 39 -63 153q0 39 71 39q29 -33 58 -92q31 -66 30 -102q-20 -37 -78 -107q-63 -76 -88 -90q-47 0 -69 33z" />
<glyph unicode="&#x205f;" horiz-adv-x="406" />
<glyph unicode="&#x2122;" horiz-adv-x="1705" d="M254 1389v67h440v-67h-172v-467h-94v467h-174zM819 922v534h129l160 -405l149 405h132v-534h-82v458l-172 -458h-54l-180 458v-458h-82z" />
<glyph unicode="&#xe000;" horiz-adv-x="634" d="M0 0v635h635v-635h-635z" />
</font>
</defs>
</svg>
